<svg preserveAspectRatio="none" overflow="visible" style="display: block;" width="23.3297" height="18.529" viewBox="0 0 23.3297 18.529" fill="none" xmlns="http://www.w3.org/2000/svg">
<g id="Group">
<path id="Vector" d="M0.831636 9.58108C1.23997 13.3727 2.98997 15.5894 5.6733 15.5894C8.35664 15.5894 10.1066 13.3727 10.515 9.58108M12.6733 9.58108C13.0233 13.0811 14.6566 15.0644 17.1066 15.0644C19.5566 15.0644 21.19 13.0811 21.54 9.58108" stroke="#8C8C8C" stroke-width="1.05" stroke-linecap="round" stroke-linejoin="round"/>
<path id="Vector_2" d="M5.6733 10.6894C8.34728 10.6894 10.515 10.1148 10.515 9.40608C10.515 8.69731 8.34728 8.12274 5.6733 8.12274C2.99932 8.12274 0.831636 8.69731 0.831636 9.40608C0.831636 10.1148 2.99932 10.6894 5.6733 10.6894Z" stroke="#8C8C8C" stroke-width="0.729167" stroke-linecap="round" stroke-linejoin="round"/>
<path id="Vector_3" d="M17.1065 10.6311C19.555 10.6311 21.5399 10.0827 21.5399 9.40613C21.5399 8.72958 19.555 8.18113 17.1065 8.18113C14.6581 8.18113 12.6732 8.72958 12.6732 9.40613C12.6732 10.0827 14.6581 10.6311 17.1065 10.6311Z" stroke="#8C8C8C" stroke-width="0.729167" stroke-linecap="round" stroke-linejoin="round"/>
<path id="Vector_4" d="M0.36462 16.8979L10.8646 18.1644M13.3651 17.1644L22.9651 15.9309M5.49842 5.61461C3.63175 3.63127 7.13175 2.4646 5.55675 0.364605M16.8734 5.61461C15.0068 3.63127 18.5068 2.4646 16.9318 0.364605M8.36508 6.66441C6.49842 4.68108 9.94008 4.76441 8.36508 2.66441M14.3651 5.61461C12.4984 4.62294 15.9401 4.66461 14.3651 3.61461" stroke="#8C8C8C" stroke-width="0.729167" stroke-linecap="round" stroke-linejoin="round"/>
</g>
</svg>
